<svg width="356" height="60" viewBox="0 0 356 60" fill="none" xmlns="http://www.w3.org/2000/svg">
<ellipse cx="334.286" cy="49.4402" rx="9.99388" ry="10.3296" transform="rotate(90 334.286 49.4402)" fill="#E2572E"/>
<ellipse cx="270.013" cy="49.4402" rx="9.99388" ry="10.3296" transform="rotate(90 270.013 49.4402)" fill="#E2572E"/>
<ellipse cx="204.592" cy="49.4402" rx="9.99388" ry="10.3296" transform="rotate(90 204.592 49.4402)" fill="#E2572E"/>
<ellipse cx="140.321" cy="49.4402" rx="9.99388" ry="10.3296" transform="rotate(90 140.321 49.4402)" fill="#E2572E"/>
<ellipse cx="74.8979" cy="49.4402" rx="9.99388" ry="10.3296" transform="rotate(90 74.8979 49.4402)" fill="#E2572E"/>
<ellipse cx="10.6255" cy="49.4402" rx="9.99388" ry="10.3296" transform="rotate(90 10.6255 49.4402)" fill="#E2572E"/>
<path d="M333.308 52.2363C319.04 31.8073 326.459 -20.6495 352.712 15.241" stroke="black" stroke-width="6" stroke-linecap="round"/>
<path d="M204.328 52.2363C190.061 31.8073 197.48 -20.6495 223.732 15.241" stroke="black" stroke-width="6" stroke-linecap="round"/>
<path d="M75.3488 52.2363C61.0811 31.8073 68.5003 -20.6495 94.7529 15.241" stroke="black" stroke-width="6" stroke-linecap="round"/>
<path d="M269.389 52.2363C255.121 31.8073 262.54 -20.6495 288.793 15.241" stroke="black" stroke-width="6" stroke-linecap="round"/>
<path d="M140.408 52.2363C126.141 31.8073 133.56 -20.6495 159.812 15.241" stroke="black" stroke-width="6" stroke-linecap="round"/>
<path d="M11.4279 52.2363C-2.83981 31.8073 4.57941 -20.6495 30.832 15.241" stroke="black" stroke-width="6" stroke-linecap="round"/>
</svg>
